<mxfile host="Electron" agent="Mozilla/5.0 (Windows NT 10.0; Win64; x64) AppleWebKit/537.36 (KHTML, like Gecko) draw.io/27.0.2 Chrome/134.0.6998.205 Electron/35.3.0 Safari/537.36" version="27.0.2">
  <diagram name="Page-1" id="ayI3KypDdpfazkLlqiAd">
    <mxGraphModel dx="2958" dy="1278" grid="1" gridSize="10" guides="1" tooltips="1" connect="1" arrows="1" fold="1" page="1" pageScale="1" pageWidth="1400" pageHeight="850" math="0" shadow="0">
      <root>
        <mxCell id="0" />
        <mxCell id="1" parent="0" />
        <mxCell id="ylFDbVKxbHmSrt3AzTCw-1" value="&lt;font style=&quot;font-size: 40px;&quot;&gt;Class Diagram Lost and Found Management System(FINDORA)&lt;/font&gt;" style="text;html=1;align=center;verticalAlign=middle;whiteSpace=wrap;rounded=0;fontSize=30;labelBackgroundColor=none;fontColor=#5C5C5C;fontFamily=Lucida Console;" vertex="1" parent="1">
          <mxGeometry x="-760" y="20" width="1550" height="50" as="geometry" />
        </mxCell>
        <mxCell id="ylFDbVKxbHmSrt3AzTCw-2" value="User" style="swimlane;fontStyle=1;align=center;verticalAlign=top;childLayout=stackLayout;horizontal=1;startSize=40;horizontalStack=0;resizeParent=1;resizeParentMax=0;resizeLast=0;collapsible=1;marginBottom=0;whiteSpace=wrap;html=1;fontSize=20;labelBackgroundColor=none;fillColor=#21C0A5;strokeColor=#006658;fontColor=#5C5C5C;fontFamily=Lucida Console;" vertex="1" parent="1">
          <mxGeometry x="-240" y="110" width="365" height="280" as="geometry" />
        </mxCell>
        <mxCell id="ylFDbVKxbHmSrt3AzTCw-3" value="&lt;font style=&quot;font-size: 20px;&quot;&gt;- &lt;u&gt;userId&lt;/u&gt;: int&amp;nbsp;&lt;/font&gt;&lt;div&gt;&lt;font style=&quot;font-size: 20px;&quot;&gt;-name:string&lt;/font&gt;&lt;/div&gt;&lt;div&gt;&lt;font style=&quot;font-size: 20px;&quot;&gt;-email: string&lt;/font&gt;&lt;/div&gt;&lt;div&gt;&lt;font style=&quot;font-size: 20px;&quot;&gt;-password : string&lt;/font&gt;&lt;/div&gt;&lt;div&gt;&lt;font style=&quot;font-size: 20px;&quot;&gt;-role : string = &quot;user&quot;&lt;/font&gt;&lt;/div&gt;" style="text;strokeColor=none;fillColor=none;align=left;verticalAlign=top;spacingLeft=4;spacingRight=4;overflow=hidden;rotatable=0;points=[[0,0.5],[1,0.5]];portConstraint=eastwest;whiteSpace=wrap;html=1;labelBackgroundColor=none;fontColor=#5C5C5C;fontFamily=Lucida Console;" vertex="1" parent="ylFDbVKxbHmSrt3AzTCw-2">
          <mxGeometry y="40" width="365" height="150" as="geometry" />
        </mxCell>
        <mxCell id="ylFDbVKxbHmSrt3AzTCw-4" value="" style="line;strokeWidth=1;fillColor=none;align=left;verticalAlign=middle;spacingTop=-1;spacingLeft=3;spacingRight=3;rotatable=0;labelPosition=right;points=[];portConstraint=eastwest;strokeColor=#006658;labelBackgroundColor=none;fontColor=#5C5C5C;fontFamily=Lucida Console;" vertex="1" parent="ylFDbVKxbHmSrt3AzTCw-2">
          <mxGeometry y="190" width="365" height="2" as="geometry" />
        </mxCell>
        <mxCell id="ylFDbVKxbHmSrt3AzTCw-5" value="&lt;font style=&quot;font-size: 20px;&quot;&gt;+ register(): void&lt;/font&gt;&lt;div&gt;&lt;font style=&quot;font-size: 20px;&quot;&gt;+ login(): boolean&lt;/font&gt;&lt;/div&gt;&lt;div&gt;&lt;font style=&quot;font-size: 20px;&quot;&gt;+updateProfile(): void&lt;/font&gt;&lt;/div&gt;" style="text;strokeColor=none;fillColor=none;align=left;verticalAlign=top;spacingLeft=4;spacingRight=4;overflow=hidden;rotatable=0;points=[[0,0.5],[1,0.5]];portConstraint=eastwest;whiteSpace=wrap;html=1;labelBackgroundColor=none;fontColor=#5C5C5C;fontFamily=Lucida Console;" vertex="1" parent="ylFDbVKxbHmSrt3AzTCw-2">
          <mxGeometry y="192" width="365" height="88" as="geometry" />
        </mxCell>
        <mxCell id="ylFDbVKxbHmSrt3AzTCw-10" value="Item" style="swimlane;fontStyle=1;align=center;verticalAlign=top;childLayout=stackLayout;horizontal=1;startSize=40;horizontalStack=0;resizeParent=1;resizeParentMax=0;resizeLast=0;collapsible=1;marginBottom=0;whiteSpace=wrap;html=1;fontSize=20;labelBackgroundColor=none;fillColor=#21C0A5;strokeColor=#006658;fontColor=#5C5C5C;fontFamily=Lucida Console;" vertex="1" parent="1">
          <mxGeometry x="-1220" y="429" width="690" height="372" as="geometry" />
        </mxCell>
        <mxCell id="ylFDbVKxbHmSrt3AzTCw-11" value="&lt;div&gt;- itemId: int&lt;/div&gt;&lt;div&gt;- userId: int&amp;nbsp; &amp;nbsp; &amp;nbsp; &amp;nbsp; &amp;nbsp; &amp;nbsp; &amp;nbsp; &amp;nbsp;// FK to User&lt;/div&gt;&lt;div&gt;- title: string&lt;/div&gt;&lt;div&gt;- description: string&lt;/div&gt;&lt;div&gt;- category: string&lt;/div&gt;&lt;div&gt;- location: string&lt;/div&gt;&lt;div&gt;- dateLostFound: DateTime&lt;/div&gt;&lt;div&gt;- status: string&amp;nbsp; &amp;nbsp; &amp;nbsp; &amp;nbsp; &amp;nbsp; &amp;nbsp; // &quot;lost&quot;,&quot;found&quot;, &quot;claimed&quot;&lt;/div&gt;&lt;div&gt;- image: string&lt;/div&gt;" style="text;strokeColor=none;fillColor=none;align=left;verticalAlign=top;spacingLeft=4;spacingRight=4;overflow=hidden;rotatable=0;points=[[0,0.5],[1,0.5]];portConstraint=eastwest;whiteSpace=wrap;html=1;fontSize=20;labelBackgroundColor=none;fontColor=#5C5C5C;fontFamily=Lucida Console;" vertex="1" parent="ylFDbVKxbHmSrt3AzTCw-10">
          <mxGeometry y="40" width="690" height="230" as="geometry" />
        </mxCell>
        <mxCell id="ylFDbVKxbHmSrt3AzTCw-12" value="" style="line;strokeWidth=1;fillColor=none;align=left;verticalAlign=middle;spacingTop=-1;spacingLeft=3;spacingRight=3;rotatable=0;labelPosition=right;points=[];portConstraint=eastwest;strokeColor=#006658;fontSize=20;labelBackgroundColor=none;fontColor=#5C5C5C;fontFamily=Lucida Console;" vertex="1" parent="ylFDbVKxbHmSrt3AzTCw-10">
          <mxGeometry y="270" width="690" height="2" as="geometry" />
        </mxCell>
        <mxCell id="ylFDbVKxbHmSrt3AzTCw-13" value="&lt;div&gt;+ createItem(): void&lt;/div&gt;&lt;div&gt;+ updateItem(): void&lt;/div&gt;&lt;div&gt;+ changeStatus(newStatus: string): void&lt;/div&gt;" style="text;strokeColor=none;fillColor=none;align=left;verticalAlign=top;spacingLeft=4;spacingRight=4;overflow=hidden;rotatable=0;points=[[0,0.5],[1,0.5]];portConstraint=eastwest;whiteSpace=wrap;html=1;fontSize=20;labelBackgroundColor=none;fontColor=#5C5C5C;fontFamily=Lucida Console;" vertex="1" parent="ylFDbVKxbHmSrt3AzTCw-10">
          <mxGeometry y="272" width="690" height="100" as="geometry" />
        </mxCell>
        <mxCell id="ylFDbVKxbHmSrt3AzTCw-14" value="Claim" style="swimlane;fontStyle=1;align=center;verticalAlign=top;childLayout=stackLayout;horizontal=1;startSize=40;horizontalStack=0;resizeParent=1;resizeParentMax=0;resizeLast=0;collapsible=1;marginBottom=0;whiteSpace=wrap;html=1;fontSize=20;labelBackgroundColor=none;fillColor=#21C0A5;strokeColor=#006658;fontColor=#5C5C5C;fontFamily=Lucida Console;" vertex="1" parent="1">
          <mxGeometry x="-400" y="490" width="765" height="270" as="geometry" />
        </mxCell>
        <mxCell id="ylFDbVKxbHmSrt3AzTCw-15" value="&lt;div&gt;- claimId: int&lt;/div&gt;&lt;div&gt;- itemId: int&amp;nbsp; &amp;nbsp; &amp;nbsp; &amp;nbsp; &amp;nbsp; &amp;nbsp; &amp;nbsp; // FK to Item&lt;/div&gt;&lt;div&gt;- userId: int&amp;nbsp; &amp;nbsp; &amp;nbsp; &amp;nbsp; &amp;nbsp; &amp;nbsp; &amp;nbsp; // FK to User (claimer)&lt;/div&gt;&lt;div&gt;- claimDate: DateTime&lt;/div&gt;&lt;div&gt;- status: string&amp;nbsp; &amp;nbsp; &amp;nbsp; &amp;nbsp; &amp;nbsp;//&quot;pending&quot;, &quot;verified&quot;, &quot;rejected&quot;&lt;/div&gt;" style="text;strokeColor=none;fillColor=none;align=left;verticalAlign=top;spacingLeft=4;spacingRight=4;overflow=hidden;rotatable=0;points=[[0,0.5],[1,0.5]];portConstraint=eastwest;whiteSpace=wrap;html=1;fontSize=20;labelBackgroundColor=none;fontColor=#5C5C5C;fontFamily=Lucida Console;" vertex="1" parent="ylFDbVKxbHmSrt3AzTCw-14">
          <mxGeometry y="40" width="765" height="160" as="geometry" />
        </mxCell>
        <mxCell id="ylFDbVKxbHmSrt3AzTCw-16" value="" style="line;strokeWidth=1;fillColor=none;align=left;verticalAlign=middle;spacingTop=-1;spacingLeft=3;spacingRight=3;rotatable=0;labelPosition=right;points=[];portConstraint=eastwest;strokeColor=#006658;fontSize=20;labelBackgroundColor=none;fontColor=#5C5C5C;fontFamily=Lucida Console;" vertex="1" parent="ylFDbVKxbHmSrt3AzTCw-14">
          <mxGeometry y="200" width="765" height="2" as="geometry" />
        </mxCell>
        <mxCell id="ylFDbVKxbHmSrt3AzTCw-17" value="&lt;div&gt;+ submitClaim(): void&lt;/div&gt;&lt;div&gt;+ verifyOwnership(): boolean&lt;/div&gt;" style="text;strokeColor=none;fillColor=none;align=left;verticalAlign=top;spacingLeft=4;spacingRight=4;overflow=hidden;rotatable=0;points=[[0,0.5],[1,0.5]];portConstraint=eastwest;whiteSpace=wrap;html=1;fontSize=20;labelBackgroundColor=none;fontColor=#5C5C5C;fontFamily=Lucida Console;" vertex="1" parent="ylFDbVKxbHmSrt3AzTCw-14">
          <mxGeometry y="202" width="765" height="68" as="geometry" />
        </mxCell>
        <mxCell id="ylFDbVKxbHmSrt3AzTCw-18" value="Notification" style="swimlane;fontStyle=1;align=center;verticalAlign=top;childLayout=stackLayout;horizontal=1;startSize=40;horizontalStack=0;resizeParent=1;resizeParentMax=0;resizeLast=0;collapsible=1;marginBottom=0;whiteSpace=wrap;html=1;fontSize=20;labelBackgroundColor=none;fillColor=#21C0A5;strokeColor=#006658;fontColor=#5C5C5C;fontFamily=Lucida Console;" vertex="1" parent="1">
          <mxGeometry x="640" y="480" width="600" height="270" as="geometry" />
        </mxCell>
        <mxCell id="ylFDbVKxbHmSrt3AzTCw-19" value="&lt;div&gt;- notificationId: int&lt;/div&gt;&lt;div&gt;- userId: int&amp;nbsp; &amp;nbsp; &amp;nbsp; &amp;nbsp; &amp;nbsp; &amp;nbsp; &amp;nbsp; // FK to User&lt;/div&gt;&lt;div&gt;- message: string&lt;/div&gt;&lt;div&gt;- date: DateTime&lt;/div&gt;&lt;div&gt;- status: string&amp;nbsp; &amp;nbsp; &amp;nbsp; &amp;nbsp; &amp;nbsp; &amp;nbsp;// &quot;read&quot;, &quot;unread&quot;&lt;/div&gt;" style="text;strokeColor=none;fillColor=none;align=left;verticalAlign=top;spacingLeft=4;spacingRight=4;overflow=hidden;rotatable=0;points=[[0,0.5],[1,0.5]];portConstraint=eastwest;whiteSpace=wrap;html=1;fontSize=20;labelBackgroundColor=none;fontColor=#5C5C5C;fontFamily=Lucida Console;" vertex="1" parent="ylFDbVKxbHmSrt3AzTCw-18">
          <mxGeometry y="40" width="600" height="160" as="geometry" />
        </mxCell>
        <mxCell id="ylFDbVKxbHmSrt3AzTCw-20" value="" style="line;strokeWidth=1;fillColor=none;align=left;verticalAlign=middle;spacingTop=-1;spacingLeft=3;spacingRight=3;rotatable=0;labelPosition=right;points=[];portConstraint=eastwest;strokeColor=#006658;fontSize=20;labelBackgroundColor=none;fontColor=#5C5C5C;fontFamily=Lucida Console;" vertex="1" parent="ylFDbVKxbHmSrt3AzTCw-18">
          <mxGeometry y="200" width="600" height="2" as="geometry" />
        </mxCell>
        <mxCell id="ylFDbVKxbHmSrt3AzTCw-21" value="&lt;div&gt;+ sendNotification(): void&lt;/div&gt;&lt;div&gt;+ markAsRead(): void&lt;/div&gt;" style="text;strokeColor=none;fillColor=none;align=left;verticalAlign=top;spacingLeft=4;spacingRight=4;overflow=hidden;rotatable=0;points=[[0,0.5],[1,0.5]];portConstraint=eastwest;whiteSpace=wrap;html=1;fontSize=20;labelBackgroundColor=none;fontColor=#5C5C5C;fontFamily=Lucida Console;" vertex="1" parent="ylFDbVKxbHmSrt3AzTCw-18">
          <mxGeometry y="202" width="600" height="68" as="geometry" />
        </mxCell>
        <mxCell id="ylFDbVKxbHmSrt3AzTCw-22" value="Chat" style="swimlane;fontStyle=1;align=center;verticalAlign=top;childLayout=stackLayout;horizontal=1;startSize=40;horizontalStack=0;resizeParent=1;resizeParentMax=0;resizeLast=0;collapsible=1;marginBottom=0;whiteSpace=wrap;html=1;fontSize=20;labelBackgroundColor=none;fillColor=#21C0A5;strokeColor=#006658;fontColor=#5C5C5C;fontFamily=Lucida Console;" vertex="1" parent="1">
          <mxGeometry x="640" y="110" width="580" height="270" as="geometry" />
        </mxCell>
        <mxCell id="ylFDbVKxbHmSrt3AzTCw-23" value="&lt;div&gt;- chatId: int&lt;/div&gt;&lt;div&gt;- senderId: int&amp;nbsp; &amp;nbsp; &amp;nbsp; &amp;nbsp; &amp;nbsp; &amp;nbsp; // FK to User&lt;/div&gt;&lt;div&gt;- receiverId: int&amp;nbsp; &amp;nbsp; &amp;nbsp; &amp;nbsp; &amp;nbsp; // FK to User&lt;/div&gt;&lt;div&gt;- message: string&lt;/div&gt;&lt;div&gt;- timestamp: DateTime&lt;/div&gt;" style="text;strokeColor=none;fillColor=none;align=left;verticalAlign=top;spacingLeft=4;spacingRight=4;overflow=hidden;rotatable=0;points=[[0,0.5],[1,0.5]];portConstraint=eastwest;whiteSpace=wrap;html=1;fontSize=20;labelBackgroundColor=none;fontColor=#5C5C5C;fontFamily=Lucida Console;" vertex="1" parent="ylFDbVKxbHmSrt3AzTCw-22">
          <mxGeometry y="40" width="580" height="140" as="geometry" />
        </mxCell>
        <mxCell id="ylFDbVKxbHmSrt3AzTCw-24" value="" style="line;strokeWidth=1;fillColor=none;align=left;verticalAlign=middle;spacingTop=-1;spacingLeft=3;spacingRight=3;rotatable=0;labelPosition=right;points=[];portConstraint=eastwest;strokeColor=#006658;fontSize=20;labelBackgroundColor=none;fontColor=#5C5C5C;fontFamily=Lucida Console;" vertex="1" parent="ylFDbVKxbHmSrt3AzTCw-22">
          <mxGeometry y="180" width="580" height="18" as="geometry" />
        </mxCell>
        <mxCell id="ylFDbVKxbHmSrt3AzTCw-25" value="&lt;div&gt;+ sendMessage(): void&lt;/div&gt;&lt;div&gt;+ getChatHistory(): List&amp;lt;string&amp;gt;&lt;/div&gt;" style="text;strokeColor=none;fillColor=none;align=left;verticalAlign=top;spacingLeft=4;spacingRight=4;overflow=hidden;rotatable=0;points=[[0,0.5],[1,0.5]];portConstraint=eastwest;whiteSpace=wrap;html=1;fontSize=20;labelBackgroundColor=none;fontColor=#5C5C5C;fontFamily=Lucida Console;" vertex="1" parent="ylFDbVKxbHmSrt3AzTCw-22">
          <mxGeometry y="198" width="580" height="72" as="geometry" />
        </mxCell>
        <mxCell id="ylFDbVKxbHmSrt3AzTCw-26" value="Admin" style="swimlane;fontStyle=1;align=center;verticalAlign=top;childLayout=stackLayout;horizontal=1;startSize=40;horizontalStack=0;resizeParent=1;resizeParentMax=0;resizeLast=0;collapsible=1;marginBottom=0;whiteSpace=wrap;html=1;fontSize=20;labelBackgroundColor=none;fillColor=#21C0A5;strokeColor=#006658;fontColor=#5C5C5C;fontFamily=Lucida Console;" vertex="1" parent="1">
          <mxGeometry x="-1090" y="130" width="320" height="202" as="geometry" />
        </mxCell>
        <mxCell id="ylFDbVKxbHmSrt3AzTCw-27" value="+ Admin (extends User)" style="text;strokeColor=none;fillColor=none;align=left;verticalAlign=top;spacingLeft=4;spacingRight=4;overflow=hidden;rotatable=0;points=[[0,0.5],[1,0.5]];portConstraint=eastwest;whiteSpace=wrap;html=1;fontSize=20;labelBackgroundColor=none;fontColor=#5C5C5C;fontFamily=Lucida Console;" vertex="1" parent="ylFDbVKxbHmSrt3AzTCw-26">
          <mxGeometry y="40" width="320" height="40" as="geometry" />
        </mxCell>
        <mxCell id="ylFDbVKxbHmSrt3AzTCw-28" value="" style="line;strokeWidth=1;fillColor=none;align=left;verticalAlign=middle;spacingTop=-1;spacingLeft=3;spacingRight=3;rotatable=0;labelPosition=right;points=[];portConstraint=eastwest;strokeColor=#006658;labelBackgroundColor=none;fontColor=#5C5C5C;fontFamily=Lucida Console;" vertex="1" parent="ylFDbVKxbHmSrt3AzTCw-26">
          <mxGeometry y="80" width="320" height="2" as="geometry" />
        </mxCell>
        <mxCell id="ylFDbVKxbHmSrt3AzTCw-29" value="&lt;div&gt;+ approvePost(): void&lt;/div&gt;&lt;div&gt;+ manageUsers(): void&lt;/div&gt;&lt;div&gt;+ removeContent(): void&lt;/div&gt;&lt;div&gt;+ viewReports(): void&lt;/div&gt;" style="text;strokeColor=none;fillColor=none;align=left;verticalAlign=top;spacingLeft=4;spacingRight=4;overflow=hidden;rotatable=0;points=[[0,0.5],[1,0.5]];portConstraint=eastwest;whiteSpace=wrap;html=1;fontSize=20;labelBackgroundColor=none;fontColor=#5C5C5C;fontFamily=Lucida Console;" vertex="1" parent="ylFDbVKxbHmSrt3AzTCw-26">
          <mxGeometry y="82" width="320" height="120" as="geometry" />
        </mxCell>
        <mxCell id="ylFDbVKxbHmSrt3AzTCw-39" style="edgeStyle=orthogonalEdgeStyle;rounded=0;orthogonalLoop=1;jettySize=auto;html=1;exitX=1;exitY=0.5;exitDx=0;exitDy=0;elbow=vertical;curved=1;labelBackgroundColor=none;strokeColor=#006658;fontColor=default;fontFamily=Lucida Console;" edge="1" parent="1" source="ylFDbVKxbHmSrt3AzTCw-29" target="ylFDbVKxbHmSrt3AzTCw-3">
          <mxGeometry relative="1" as="geometry">
            <Array as="points">
              <mxPoint x="-500" y="272" />
              <mxPoint x="-500" y="225" />
            </Array>
          </mxGeometry>
        </mxCell>
        <mxCell id="ylFDbVKxbHmSrt3AzTCw-43" style="edgeStyle=orthogonalEdgeStyle;rounded=0;orthogonalLoop=1;jettySize=auto;html=1;exitX=0;exitY=0.5;exitDx=0;exitDy=0;entryX=1;entryY=0.5;entryDx=0;entryDy=0;strokeColor=#006658;fontColor=#5C5C5C;fillColor=#21C0A5;curved=1;" edge="1" parent="1" source="ylFDbVKxbHmSrt3AzTCw-3" target="ylFDbVKxbHmSrt3AzTCw-11">
          <mxGeometry relative="1" as="geometry">
            <Array as="points">
              <mxPoint x="-410" y="225" />
              <mxPoint x="-410" y="584" />
            </Array>
          </mxGeometry>
        </mxCell>
        <mxCell id="ylFDbVKxbHmSrt3AzTCw-46" style="edgeStyle=orthogonalEdgeStyle;rounded=0;orthogonalLoop=1;jettySize=auto;html=1;exitX=0;exitY=0.5;exitDx=0;exitDy=0;entryX=0.25;entryY=0;entryDx=0;entryDy=0;strokeColor=#006658;fontColor=#5C5C5C;fillColor=#21C0A5;curved=1;" edge="1" parent="1" source="ylFDbVKxbHmSrt3AzTCw-5" target="ylFDbVKxbHmSrt3AzTCw-14">
          <mxGeometry relative="1" as="geometry" />
        </mxCell>
        <mxCell id="ylFDbVKxbHmSrt3AzTCw-49" style="edgeStyle=orthogonalEdgeStyle;rounded=0;orthogonalLoop=1;jettySize=auto;html=1;exitX=1;exitY=0.5;exitDx=0;exitDy=0;entryX=0;entryY=0.5;entryDx=0;entryDy=0;strokeColor=#006658;fontColor=#5C5C5C;fillColor=#21C0A5;curved=1;" edge="1" parent="1" source="ylFDbVKxbHmSrt3AzTCw-3" target="ylFDbVKxbHmSrt3AzTCw-19">
          <mxGeometry relative="1" as="geometry" />
        </mxCell>
        <mxCell id="ylFDbVKxbHmSrt3AzTCw-50" style="edgeStyle=orthogonalEdgeStyle;rounded=0;orthogonalLoop=1;jettySize=auto;html=1;exitX=1;exitY=0.5;exitDx=0;exitDy=0;entryX=0;entryY=0.5;entryDx=0;entryDy=0;strokeColor=#006658;fontColor=#5C5C5C;fillColor=#21C0A5;curved=1;" edge="1" parent="1" source="ylFDbVKxbHmSrt3AzTCw-3" target="ylFDbVKxbHmSrt3AzTCw-23">
          <mxGeometry relative="1" as="geometry" />
        </mxCell>
        <mxCell id="ylFDbVKxbHmSrt3AzTCw-51" style="edgeStyle=orthogonalEdgeStyle;rounded=0;orthogonalLoop=1;jettySize=auto;html=1;exitX=1;exitY=0.5;exitDx=0;exitDy=0;entryX=0;entryY=0.5;entryDx=0;entryDy=0;strokeColor=#006658;fontColor=#5C5C5C;fillColor=#21C0A5;curved=1;" edge="1" parent="1" source="ylFDbVKxbHmSrt3AzTCw-13" target="ylFDbVKxbHmSrt3AzTCw-15">
          <mxGeometry relative="1" as="geometry" />
        </mxCell>
        <mxCell id="ylFDbVKxbHmSrt3AzTCw-53" value="&lt;font face=&quot;Lucida Console&quot; style=&quot;font-size: 20px;&quot;&gt;1...*&lt;/font&gt;" style="text;html=1;align=center;verticalAlign=middle;whiteSpace=wrap;rounded=0;fontColor=#5C5C5C;rotation=-40;" vertex="1" parent="1">
          <mxGeometry x="-460" y="630" width="60" height="30" as="geometry" />
        </mxCell>
        <mxCell id="ylFDbVKxbHmSrt3AzTCw-54" value="&lt;font face=&quot;Lucida Console&quot; style=&quot;font-size: 20px;&quot;&gt;1...*&lt;/font&gt;" style="text;html=1;align=center;verticalAlign=middle;whiteSpace=wrap;rounded=0;fontColor=#5C5C5C;" vertex="1" parent="1">
          <mxGeometry x="-200" y="440" width="60" height="30" as="geometry" />
        </mxCell>
        <mxCell id="ylFDbVKxbHmSrt3AzTCw-55" value="&lt;font face=&quot;Lucida Console&quot; style=&quot;font-size: 20px;&quot;&gt;1...*&lt;/font&gt;" style="text;html=1;align=center;verticalAlign=middle;whiteSpace=wrap;rounded=0;fontColor=#5C5C5C;" vertex="1" parent="1">
          <mxGeometry x="-520" y="540" width="60" height="30" as="geometry" />
        </mxCell>
        <mxCell id="ylFDbVKxbHmSrt3AzTCw-56" value="&lt;font face=&quot;Lucida Console&quot; style=&quot;font-size: 20px;&quot;&gt;1...*&lt;/font&gt;" style="text;html=1;align=center;verticalAlign=middle;whiteSpace=wrap;rounded=0;fontColor=#5C5C5C;" vertex="1" parent="1">
          <mxGeometry x="570" y="560" width="60" height="30" as="geometry" />
        </mxCell>
        <mxCell id="ylFDbVKxbHmSrt3AzTCw-57" value="&lt;font face=&quot;Lucida Console&quot; style=&quot;font-size: 20px;&quot;&gt;1...*&lt;/font&gt;" style="text;html=1;align=center;verticalAlign=middle;whiteSpace=wrap;rounded=0;fontColor=#5C5C5C;" vertex="1" parent="1">
          <mxGeometry x="570" y="180" width="60" height="30" as="geometry" />
        </mxCell>
      </root>
    </mxGraphModel>
  </diagram>
</mxfile>
